<?xml version="1.0" encoding="UTF-8"?>
<svg version="1.1" xmlns="http://www.w3.org/2000/svg" width="80" height="68">

<path d="
	M 10 44 
	L 3 44
	L 1 39
	L 1 35
	L 3 31
	L 20 27
	L 37 17
	L 49 16
	L 70 17
	L 77 26
	L 78 44
	L 73 44
	L 73 39
	C 70 33, 61 33, 58 39
	L 58 39
	L 58 44
	L 25 44
	L 25 39
	C 22 33, 13 33, 10 39
	L 10 39
	
	Z " 
fill="#6f4e37" transform="translate(0,0)"/>

<path d="
	M 25 44
	L 25 39
	L 58 39
	L 58 44
	Z"

fill="#000000" transform="translate(0,0)"/>

<path d="
	M 28 44
	L 30 42
	L 55 42
	L 57 44
	Z"

fill="#cdcdcd" transform="translate(0,0)"/>

<path d="
	M 10 44
	L 3 44
	L 1 39
	L 10 39
	Z"

fill="#000000" transform="translate(0,0)"/>

<path d="
	M 73 44
	L 73 39
	L 78 39
	L 78 44
	Z"

fill="#000000" transform="translate(0,0)"/>

<path d="
	M 28 28
	L 28 25
	L 37 20
	L 46 19
	L 45 28
	Z"

fill="#5B8FA8" transform="translate(0,0)"/>

<path d="
	M 48 28
	L 49 19
	L 66 20
	L 66 22
	L 65 24
	L 62 27
	Z"

fill="#5B8FA8" transform="translate(0,0)"/>

<circle cx="18" cy="42" r="6" fill="#242424"/>
<circle cx="18" cy="42" r="4" fill="#cdcdcd"/>

<circle cx="66" cy="42" r="6" fill="#242424"/>
<circle cx="66" cy="42" r="4" fill="#cdcdcd"/>

</svg>